<svg xmlns="http://www.w3.org/2000/svg" viewBox="0 0 512 512">
  <g fill="#ffd64d" opacity="0.95">
    <path d="M110 196c26-24 52-29 82-16 28 13 48 13 74 0 26-13 56-10 83 10 25 19 52 18 80-2v132c-22 25-47 31-76 18-30-13-56-13-84 0-29 13-58 9-85-12-26-20-49-21-74-4V196z" />
  </g>
  <g fill="#ffe690" opacity="0.65">
    <circle cx="178" cy="232" r="12" />
    <circle cx="260" cy="222" r="10" />
    <circle cx="332" cy="248" r="11" />
    <circle cx="220" cy="300" r="13" />
    <circle cx="302" cy="322" r="9" />
  </g>
</svg>
