<svg xmlns="http://www.w3.org/2000/svg" viewBox="0 0 512 512">
  <g fill="#d5b18a" stroke="#9a704e" stroke-width="4" opacity="0.9">
    <path d="M160 198c0-18 18-34 40-34s40 16 40 34h-80z" />
    <rect x="190" y="198" width="20" height="20" rx="8" />

    <path d="M274 174c0-16 16-30 36-30s36 14 36 30h-72z" />
    <rect x="302" y="174" width="16" height="18" rx="7" />

    <path d="M318 282c0-17 17-31 38-31s38 14 38 31h-76z" />
    <rect x="348" y="282" width="16" height="18" rx="7" />

    <path d="M132 300c0-16 16-30 36-30s36 14 36 30h-72z" />
    <rect x="160" y="300" width="16" height="18" rx="7" />

    <path d="M238 338c0-15 15-28 34-28s34 13 34 28h-68z" />
    <rect x="264" y="338" width="14" height="16" rx="6" />
  </g>
</svg>
